<svg width="765" height="766" viewBox="0 0 765 766" fill="none" xmlns="http://www.w3.org/2000/svg">
<path d="M355.199 715.668C357.221 715.932 359.046 716.508 360.674 717.397C362.299 718.311 363.658 719.465 364.752 720.857C365.846 722.249 366.643 723.823 367.142 725.58C367.617 727.334 367.725 729.196 367.468 731.167C367.211 733.137 366.629 734.91 365.721 736.483C364.787 738.053 363.614 739.371 362.199 740.436C360.759 741.497 359.139 742.249 357.337 742.691C355.532 743.158 353.619 743.26 351.597 742.997C349.652 742.743 347.866 742.172 346.238 741.283C344.606 740.419 343.287 739.258 342.28 737.8L344.319 736.23C345.273 737.5 346.384 738.465 347.651 739.125C348.915 739.81 350.315 740.253 351.851 740.453C353.463 740.663 354.997 740.577 356.453 740.194C357.905 739.837 359.209 739.213 360.367 738.323C361.52 737.458 362.48 736.386 363.246 735.106C363.982 733.849 364.456 732.414 364.666 730.801C364.876 729.189 364.788 727.668 364.402 726.238C363.987 724.83 363.334 723.548 362.444 722.391C361.55 721.259 360.449 720.322 359.14 719.579C357.828 718.861 356.366 718.397 354.754 718.187C353.218 717.986 351.752 718.056 350.354 718.394C348.956 718.732 347.634 719.393 346.387 720.375L344.818 718.336C346.165 717.184 347.74 716.387 349.541 715.945C351.343 715.503 353.229 715.411 355.199 715.668Z" fill="#242424"/>
<path d="M322.549 711.647C325.908 712.472 328.315 714.087 329.771 716.491C331.227 718.895 331.491 721.989 330.561 725.774L326.859 740.851L324.076 740.168L327.751 725.204C328.515 722.095 328.376 719.63 327.335 717.806C326.295 715.983 324.496 714.757 321.94 714.129C319.358 713.495 317.184 713.745 315.417 714.879C313.65 716.013 312.385 718.134 311.622 721.242L307.947 736.206L305.24 735.542L308.942 720.465C309.872 716.68 311.539 714.06 313.943 712.604C316.322 711.141 319.19 710.823 322.549 711.647Z" fill="#242424"/>
<path d="M289.8 703.8C291.704 704.456 293.428 705.392 294.975 706.608C296.489 707.839 297.553 709.107 298.168 710.411L296.388 712.132C295.788 710.942 294.837 709.781 293.534 708.65C292.199 707.534 290.689 706.686 289.005 706.106C287.395 705.551 286.022 705.296 284.887 705.342C283.719 705.403 282.786 705.696 282.087 706.219C281.363 706.734 280.858 707.406 280.572 708.236C280.228 709.236 280.243 710.143 280.618 710.954C280.969 711.758 281.549 712.49 282.359 713.152C283.16 713.837 284.075 714.508 285.105 715.163C286.135 715.818 287.161 716.486 288.182 717.166C289.195 717.87 290.089 718.642 290.864 719.483C291.615 720.315 292.14 721.246 292.44 722.278C292.707 723.325 292.604 724.532 292.133 725.899C291.696 727.168 290.967 728.213 289.947 729.035C288.893 729.873 287.562 730.37 285.952 730.525C284.334 730.704 282.439 730.42 280.268 729.671C278.828 729.175 277.472 728.475 276.2 727.573C274.919 726.694 273.888 725.725 273.108 724.664L274.767 722.82C275.613 723.93 276.599 724.871 277.726 725.642C278.828 726.404 279.952 726.982 281.099 727.378C282.637 727.908 283.977 728.138 285.12 728.068C286.264 727.998 287.201 727.693 287.933 727.154C288.633 726.63 289.133 725.929 289.436 725.051C289.781 724.051 289.778 723.149 289.427 722.345C289.052 721.533 288.459 720.797 287.65 720.135C286.816 719.466 285.884 718.803 284.854 718.148C283.824 717.493 282.815 716.817 281.826 716.121C280.813 715.417 279.931 714.649 279.181 713.817C278.397 713.001 277.868 712.081 277.593 711.058C277.293 710.027 277.375 708.84 277.837 707.498C278.266 706.253 279.008 705.212 280.061 704.374C281.106 703.56 282.449 703.068 284.092 702.897C285.701 702.742 287.604 703.043 289.8 703.8Z" fill="#242424"/>
<path d="M263.058 695.147L253.053 717.646L261.755 721.516L260.748 723.78L240.726 714.876L241.733 712.612L250.435 716.482L260.44 693.983L263.058 695.147Z" fill="#242424"/>
<path d="M231.231 681.006C232.987 682.043 234.449 683.297 235.619 684.767C236.753 686.247 237.561 687.848 238.042 689.571C238.487 691.303 238.601 693.064 238.383 694.854C238.13 696.653 237.497 698.408 236.486 700.119C235.475 701.83 234.25 703.219 232.81 704.287C231.334 705.364 229.737 706.114 228.018 706.537C226.263 706.97 224.471 707.035 222.641 706.733C220.798 706.453 218.987 705.788 217.209 704.738C215.454 703.701 214.009 702.442 212.875 700.963C211.727 699.505 210.924 697.922 210.465 696.212C209.985 694.489 209.871 692.728 210.124 690.929C210.355 689.117 210.977 687.355 211.987 685.644C212.998 683.933 214.242 682.539 215.717 681.463C217.171 680.373 218.768 679.623 220.509 679.212C222.228 678.789 224.009 678.717 225.853 678.997C227.683 679.299 229.476 679.968 231.231 681.006ZM229.931 683.206C228.531 682.378 227.105 681.85 225.651 681.621C224.163 681.401 222.729 681.468 221.35 681.823C219.936 682.186 218.643 682.802 217.472 683.668C216.287 684.557 215.281 685.702 214.454 687.102C213.627 688.501 213.116 689.924 212.923 691.368C212.716 692.835 212.801 694.264 213.177 695.656C213.519 697.056 214.152 698.345 215.076 699.52C215.965 700.705 217.109 701.711 218.509 702.538C219.909 703.365 221.353 703.889 222.842 704.109C224.318 704.351 225.763 704.291 227.177 703.927C228.555 703.572 229.848 702.957 231.055 702.081C232.227 701.215 233.226 700.081 234.053 698.681C234.867 697.304 235.378 695.882 235.585 694.415C235.769 692.935 235.691 691.495 235.35 690.094C234.973 688.702 234.329 687.407 233.418 686.21C232.493 685.034 231.331 684.033 229.931 683.206Z" fill="#242424"/>
<path d="M206.686 669.113L190.024 690.487L188.162 689.035L191.387 664.747L192.364 665.508L169.689 674.634L167.826 673.182L184.488 651.809L186.656 653.499L172.636 671.483L172.117 671.078L192.934 662.762L194.003 663.595L191.079 685.86L190.498 685.407L204.518 667.423L206.686 669.113Z" fill="#242424"/>
<path d="M159.983 652.537L149.569 642.701L151.244 640.928L161.658 650.763L159.983 652.537ZM168.345 643.233L156.495 632.041L158.197 630.24L172.129 643.399L153.52 663.101L140.01 650.341L141.712 648.539L153.139 659.332L168.345 643.233Z" fill="#242424"/>
<path d="M148.011 622.175L127.498 639.885L120.869 632.207C119.368 630.468 118.361 628.729 117.848 626.989C117.316 625.267 117.29 623.618 117.772 622.043C118.217 620.465 119.182 619.036 120.667 617.754C122.112 616.506 123.658 615.768 125.303 615.541C126.912 615.311 128.539 615.577 130.185 616.338C131.812 617.116 133.376 618.375 134.877 620.114L140.468 626.59L138.637 626.483L146.139 620.006L148.011 622.175ZM135.918 608.167L133.028 619.868L131.004 617.524L133.869 605.794L135.918 608.167ZM138.813 626.331L138.622 628.184L133.081 621.766C131.31 619.715 129.52 618.55 127.711 618.27C125.884 617.972 124.16 618.522 122.539 619.922C120.898 621.339 120.092 622.973 120.121 624.823C120.133 626.654 121.024 628.595 122.795 630.646L128.336 637.064L126.475 636.982L138.813 626.331Z" fill="#242424"/>
<path d="M115.362 585.11L92.493 599.652L87.0501 591.092C85.8175 589.154 85.0738 587.287 84.8191 585.491C84.5425 583.71 84.7569 582.075 85.4621 580.586C86.1317 579.09 87.2941 577.816 88.9493 576.763C90.561 575.738 92.1973 575.233 93.8581 575.247C95.4833 575.254 97.0549 575.753 98.5729 576.745C100.069 577.752 101.433 579.224 102.666 581.162L107.257 588.382L105.461 588.01L113.824 582.692L115.362 585.11ZM105.431 569.494L100.873 580.651L99.2108 578.037L103.749 566.848L105.431 569.494ZM105.657 587.886L105.199 589.691L100.649 582.536C99.1953 580.249 97.5933 578.837 95.8436 578.298C94.08 577.737 92.2943 578.031 90.4866 579.181C88.6571 580.344 87.6223 581.843 87.3822 583.678C87.1282 585.491 87.7283 587.541 89.1825 589.828L93.7321 596.983L91.9031 596.632L105.657 587.886Z" fill="#242424"/>
<path d="M81.9942 561.83L75.4961 549.064L77.6697 547.958L84.1679 560.724L81.9942 561.83ZM92.998 555.881L85.6041 541.356L87.8122 540.232L96.5057 557.31L72.3542 569.604L63.9241 553.043L66.1322 551.919L73.2627 565.927L92.998 555.881Z" fill="#242424"/>
<path d="M81.478 529.445L56.3669 539.637L55.2895 536.982L78.1047 527.723L72.3974 513.66L74.6933 512.729L81.478 529.445Z" fill="#242424"/>
<path d="M70.6745 506.843L41.1868 502.554L40.394 499.841L62.931 480.347L63.7781 483.246L42.5567 501.306L42.2308 500.192L69.8383 503.981L70.6745 506.843ZM62.3571 504.191L59.8885 504.026L55.4683 488.901L57.459 487.432L62.3571 504.191Z" fill="#242424"/>
<path d="M58.3279 465.591L34.1823 470.415L36.0482 479.755L33.6184 480.24L29.3255 458.752L31.7552 458.267L33.6211 467.606L57.7667 462.782L58.3279 465.591Z" fill="#242424"/>
<path d="M53.6786 443.368L26.8576 447.25L26.4472 444.415L53.2682 440.532L53.6786 443.368Z" fill="#242424"/>
<path d="M49.3838 413.671C49.4419 415.709 49.1605 417.615 48.5397 419.388C47.8924 421.137 46.9679 422.673 45.7663 423.999C44.5381 425.299 43.1087 426.334 41.4782 427.103C39.821 427.847 37.9992 428.248 36.0126 428.305C34.0261 428.361 32.1973 428.065 30.5262 427.415C28.8287 426.74 27.3427 425.789 26.0683 424.56C24.7674 423.306 23.7569 421.824 23.0369 420.115C22.291 418.406 21.8887 416.52 21.8299 414.456C21.7719 412.418 22.0665 410.524 22.7138 408.776C23.3354 407.028 24.2473 405.505 25.4497 404.205C26.6513 402.88 28.0807 401.845 29.7378 401.101C31.3942 400.33 33.2157 399.917 35.2023 399.861C37.1888 399.804 39.0309 400.113 40.7284 400.788C42.4252 401.436 43.9112 402.388 45.1863 403.643C46.4607 404.872 47.4709 406.341 48.2167 408.049C48.9367 409.759 49.3258 411.632 49.3838 413.671ZM46.8297 413.743C46.7834 412.118 46.4699 410.629 45.8891 409.277C45.2818 407.9 44.4608 406.723 43.4259 405.746C42.3645 404.743 41.155 403.977 39.7972 403.448C38.4137 402.919 36.9092 402.678 35.2838 402.724C33.6585 402.771 32.1831 403.097 30.8577 403.702C29.5065 404.309 28.3425 405.143 27.3657 406.203C26.3624 407.239 25.6097 408.461 25.1076 409.87C24.5789 411.253 24.3378 412.758 24.3841 414.383C24.4304 416.008 24.7572 417.509 25.3645 418.886C25.9459 420.264 26.7674 421.454 27.8288 422.457C28.8636 423.434 30.0732 424.2 31.4575 424.755C32.8152 425.284 34.3068 425.526 35.9321 425.479C37.5317 425.434 39.0071 425.108 40.3583 424.501C41.7088 423.869 42.8857 423.035 43.889 421.999C44.8658 420.939 45.6181 419.704 46.146 418.294C46.6481 416.886 46.876 415.369 46.8297 413.743Z" fill="#242424"/>
<path d="M47.0077 385.428L20.0015 383.17L20.1982 380.816L45.2131 364.143L45.1099 365.378L21.653 363.416L21.8885 360.6L48.8948 362.858L48.698 365.211L23.6863 381.846L23.7896 380.611L47.2464 382.573L47.0077 385.428Z" fill="#242424"/>
<path d="M50.7853 341.281C50.4409 343.264 49.7919 345.116 48.8382 346.837C47.8635 348.527 46.7815 349.78 45.5921 350.595L43.61 349.112C44.6888 348.33 45.683 347.206 46.5925 345.739C47.481 344.243 48.0775 342.618 48.3822 340.863C48.6737 339.185 48.7064 337.789 48.4806 336.676C48.2338 335.533 47.7963 334.658 47.1682 334.051C46.5444 333.419 45.8003 333.028 44.9357 332.878C43.8931 332.697 43.0009 332.856 42.2592 333.356C41.5219 333.83 40.8913 334.52 40.3675 335.424C39.8183 336.324 39.3023 337.335 38.8194 338.456C38.3366 339.577 37.841 340.696 37.3328 341.813C36.7991 342.926 36.1791 343.931 35.4729 344.83C34.7711 345.704 33.9349 346.371 32.9643 346.831C31.9727 347.261 30.7649 347.353 29.3408 347.106C28.0185 346.876 26.8702 346.323 25.8959 345.446C24.9007 344.54 24.1983 343.305 23.7888 341.741C23.3539 340.172 23.333 338.256 23.726 335.993C23.9865 334.492 24.4609 333.042 25.1493 331.642C25.8123 330.238 26.6053 329.066 27.5282 328.126L29.6131 329.47C28.6515 330.482 27.8801 331.606 27.2989 332.841C26.7221 334.05 26.33 335.253 26.1224 336.448C25.8442 338.05 25.8308 339.41 26.082 340.528C26.3333 341.645 26.7835 342.522 27.4326 343.159C28.0608 343.766 28.8326 344.149 29.748 344.308C30.7906 344.489 31.6806 344.342 32.4179 343.868C33.1596 343.368 33.7924 342.665 34.3162 341.761C34.8444 340.831 35.3499 339.805 35.8328 338.684C36.3156 337.563 36.8217 336.459 37.351 335.372C37.8847 334.26 38.5024 333.267 39.2042 332.393C39.885 331.49 40.7085 330.821 41.6747 330.386C42.6452 329.926 43.8298 329.817 45.2285 330.06C46.5254 330.285 47.6715 330.851 48.6667 331.757C49.6365 332.659 50.3367 333.907 50.7672 335.501C51.1767 337.066 51.1827 338.992 50.7853 341.281Z" fill="#242424"/>
<path d="M32.6121 291.998L33.4005 289.284L59.4252 296.844L58.6369 299.558L32.6121 291.998ZM53.9066 315.842L53.1075 318.593L27.0827 311.033L27.8819 308.282L53.9066 315.842ZM46.7039 295.809L41.8117 312.651L39.3951 311.949L44.2873 295.107L46.7039 295.809Z" fill="#242424"/>
<path d="M63.1523 283.456L37.5649 274.527L38.5088 271.822L64.0962 280.751L63.1523 283.456Z" fill="#242424"/>
<path d="M68.1086 266.042L43.5564 254.57L47.8504 245.38C48.8229 243.299 49.9978 241.669 51.3752 240.489C52.7292 239.298 54.2233 238.601 55.8575 238.396C57.4792 238.156 59.1787 238.452 60.9558 239.282C62.6861 240.091 63.9914 241.199 64.8717 242.608C65.7395 243.982 66.1628 245.576 66.1417 247.389C66.1205 249.202 65.6237 251.15 64.6512 253.231L61.0291 260.982L60.3424 259.251L69.3215 263.447L68.1086 266.042ZM60.5528 259.35L58.7493 259.917L62.3386 252.236C63.4859 249.78 63.8284 247.676 63.3662 245.921C62.8915 244.133 61.6838 242.785 59.743 241.878C57.7788 240.96 55.9584 240.893 54.2818 241.676C52.6162 242.436 51.2097 244.044 50.0624 246.499L46.4731 254.181L45.7864 252.45L60.5528 259.35Z" fill="#242424"/>
<path d="M88.0233 220.386L65.8817 204.759L67.2435 202.83L91.6574 204.897L90.9431 205.909L80.7493 183.693L82.111 181.764L104.253 197.39L102.668 199.636L84.0371 186.487L84.4166 185.95L93.7134 206.348L92.9321 207.455L70.5536 205.592L70.9777 204.991L89.6082 218.14L88.0233 220.386Z" fill="#242424"/>
<path d="M109.144 187.734L96.8527 160.589L98.7096 158.458L127.28 166.924L125.296 169.2L98.6419 161.07L99.405 160.194L111.102 185.486L109.144 187.734ZM106.891 179.3L105.699 177.131L116.052 165.252L118.363 166.136L106.891 179.3Z" fill="#242424"/>
<path d="M132.971 158.236L114.6 138.313L116.336 136.712L146.04 141.341L145.129 142.18L129.172 124.876L131.25 122.96L149.621 142.883L147.885 144.484L118.21 139.829L119.12 138.989L135.077 156.294L132.971 158.236Z" fill="#242424"/>
<path d="M155.811 135.117L149.369 106.024L151.625 104.321L177.841 118.484L175.431 120.304L151.021 106.862L151.948 106.163L158.191 133.321L155.811 135.117ZM155.342 126.4L154.622 124.033L167.198 114.538L169.277 115.879L155.342 126.4Z" fill="#242424"/>
<path d="M195.815 105.153C194.041 106.21 192.228 106.899 190.377 107.22C188.535 107.506 186.742 107.447 185 107.043C183.279 106.625 181.679 105.881 180.2 104.809C178.743 103.724 177.506 102.328 176.489 100.62C175.472 98.9129 174.834 97.1601 174.575 95.3621C174.337 93.5509 174.456 91.783 174.931 90.0583C175.406 88.3336 176.215 86.7406 177.357 85.2792C178.509 83.7825 179.971 82.506 181.745 81.4495C183.519 80.3931 185.303 79.7064 187.097 79.3892C188.913 79.0589 190.679 79.1489 192.395 79.6592L191.795 82.1338C190.239 81.7391 188.747 81.681 187.321 81.9595C185.895 82.238 184.505 82.78 183.153 83.5856C181.711 84.4439 180.526 85.4801 179.597 86.6943C178.676 87.8731 178.026 89.1767 177.645 90.6051C177.273 91.9982 177.182 93.4343 177.371 94.9133C177.57 96.357 178.086 97.7774 178.918 99.1745C179.736 100.549 180.739 101.679 181.927 102.564C183.137 103.436 184.45 104.051 185.865 104.41C187.289 104.733 188.745 104.782 190.233 104.557C191.73 104.297 193.188 103.744 194.608 102.899C195.938 102.106 197.072 101.161 198.01 100.062C198.97 98.9493 199.665 97.6193 200.095 96.0715L202.601 97.1023C202.073 98.7383 201.219 100.254 200.036 101.649C198.841 103.021 197.434 104.189 195.815 105.153ZM200.061 98.2093L194.951 89.6272L197.313 88.2208L202.601 97.1023L200.061 98.2093Z" fill="#242424"/>
<path d="M211.991 77.0123L224.943 70.8945L225.985 73.0999L213.033 79.2177L211.991 77.0123ZM217.612 88.1871L232.349 81.2261L233.408 83.4665L216.079 91.6511L204.505 67.1465L221.308 59.2099L222.366 61.4503L208.154 68.1634L217.612 88.1871Z" fill="#242424"/>
<path d="M244.391 75.9667L236.106 50.1637L238.354 49.4417L256.612 65.7805L255.433 66.1593L260.655 42.281L262.904 41.559L271.189 67.362L268.572 68.2023L261.6 46.4909L262.227 46.2897L257.381 68.1765L256.091 68.5908L239.336 53.6398L240.036 53.4149L247.008 75.1263L244.391 75.9667Z" fill="#242424"/>
<path d="M283.991 46.7707L297.982 43.6978L298.506 46.08L284.514 49.153L283.991 46.7707ZM286.976 58.9181L302.896 55.4216L303.427 57.8416L284.71 61.9527L278.896 35.4832L297.047 31.4966L297.578 33.9167L282.226 37.2886L286.976 58.9181Z" fill="#242424"/>
<path d="M315.428 53.7143L312.576 26.7642L314.924 26.5157L335.997 47.956L334.765 48.0863L332.288 24.6783L335.098 24.3809L337.95 51.3309L335.602 51.5795L314.568 30.1351L315.8 30.0048L318.277 53.4128L315.428 53.7143Z" fill="#242424"/>
<path d="M357.415 48.9662L356.904 24.3488L347.382 24.5466L347.331 22.0694L369.239 21.6143L369.29 24.0915L359.768 24.2893L360.28 48.9067L357.415 48.9662Z" fill="#242424"/>
<path d="M409.613 49.4517C407.591 49.1881 405.766 48.6117 404.138 47.7227C402.514 46.8082 401.154 45.6549 400.06 44.2629C398.967 42.8709 398.17 41.2964 397.67 39.5394C397.196 37.7857 397.087 35.9235 397.344 33.9529C397.601 31.9822 398.184 30.2101 399.092 28.6366C400.025 27.0665 401.199 25.7489 402.613 24.6839C404.053 23.6223 405.674 22.8705 407.475 22.4287C409.28 21.9612 411.193 21.8593 413.215 22.1229C415.16 22.3765 416.947 22.9478 418.575 23.8368C420.206 24.7002 421.526 25.8613 422.533 27.3201L420.493 28.8891C419.539 27.6195 418.429 26.6549 417.161 25.9951C415.897 25.3097 414.497 24.8669 412.962 24.6667C411.349 24.4564 409.815 24.5428 408.36 24.9256C406.908 25.2829 405.603 25.9067 404.446 26.7969C403.292 27.6616 402.332 28.7338 401.567 30.0135C400.83 31.2709 400.357 32.7059 400.147 34.3182C399.936 35.9306 400.024 37.4517 400.411 38.8816C400.826 40.2892 401.479 41.5716 402.369 42.7288C403.262 43.8604 404.363 44.7979 405.672 45.5411C406.984 46.2588 408.446 46.7227 410.059 46.9329C411.594 47.1331 413.061 47.0641 414.458 46.7257C415.856 46.3874 417.179 45.7269 418.426 44.7443L419.995 46.7838C418.647 47.9356 417.073 48.7324 415.271 49.1743C413.47 49.6161 411.584 49.7086 409.613 49.4517Z" fill="#242424"/>
<path d="M442.185 53.4414C438.826 52.6165 436.419 51.0021 434.963 48.5981C433.507 46.1941 433.244 43.0997 434.173 39.3148L437.876 24.2381L440.658 24.9214L436.983 39.8853C436.22 42.9934 436.358 45.4592 437.399 47.2828C438.439 49.1063 440.238 50.332 442.795 50.9599C445.376 51.5939 447.551 51.3439 449.317 50.2098C451.084 49.0756 452.349 46.9545 453.113 43.8464L456.787 28.8825L459.495 29.5473L455.792 44.624C454.862 48.4089 453.196 51.0293 450.792 52.4854C448.413 53.9475 445.544 54.2662 442.185 53.4414Z" fill="#242424"/>
<path d="M473.465 60.8353C471.56 60.1864 469.831 59.257 468.28 58.0472C466.762 56.8213 465.692 55.5575 465.072 54.2557L466.846 52.5286C467.451 53.716 468.406 54.873 469.713 55.9996C471.053 57.1101 472.566 57.9524 474.251 58.5264C475.864 59.0754 477.238 59.3251 478.373 59.2752C479.54 59.2093 480.472 58.9133 481.17 58.3872C481.891 57.8695 482.393 57.1953 482.676 56.3646C483.017 55.3629 482.999 54.4568 482.62 53.6463C482.266 52.8441 481.683 52.114 480.871 51.4558C480.068 50.7732 479.15 50.1061 478.117 49.4547C477.085 48.8032 476.057 48.1396 475.033 47.4637C474.017 46.7634 473.12 45.9945 472.342 45.157C471.588 44.3277 471.059 43.398 470.756 42.3676C470.485 41.3211 470.583 40.1138 471.049 38.7455C471.481 37.4751 472.206 36.4268 473.224 35.6008C474.274 34.7587 475.603 34.2572 477.212 34.0961C478.83 33.9106 480.725 34.1881 482.9 34.9285C484.341 35.4193 485.7 36.1137 486.976 37.0115C488.26 37.885 489.294 38.8507 490.079 39.9086L488.427 41.7589C487.577 40.6516 486.587 39.7148 485.457 38.9484C484.352 38.1904 483.225 37.6159 482.077 37.2249C480.538 36.7008 479.197 36.4759 478.053 36.5501C476.91 36.6244 475.974 36.9326 475.244 37.4748C474.547 38.0008 474.048 38.7036 473.749 39.5832C473.408 40.5849 473.414 41.4869 473.768 42.289C474.147 43.0995 474.742 43.8338 475.554 44.492C476.39 45.1585 477.325 45.8175 478.357 46.4689C479.389 47.1204 480.401 47.7921 481.393 48.4841C482.408 49.1844 483.293 49.9491 484.047 50.7783C484.833 51.5914 485.366 52.509 485.645 53.5311C485.949 54.5614 485.872 55.7485 485.414 57.0923C484.99 58.3384 484.253 59.3824 483.202 60.2245C482.161 61.0422 480.819 61.5396 479.177 61.7168C477.568 61.8778 475.664 61.584 473.465 60.8353Z" fill="#242424"/>
<path d="M500.452 69.4403L510.372 46.9047L501.656 43.0674L502.654 40.7996L522.71 49.6286L521.711 51.8964L512.995 48.059L503.074 70.5947L500.452 69.4403Z" fill="#242424"/>
<path d="M531.919 83.1844C530.16 82.1537 528.693 80.9052 527.518 79.439C526.378 77.9636 525.564 76.3653 525.077 74.644C524.625 72.9135 524.505 71.1529 524.716 69.3624C524.963 67.5626 525.589 65.8053 526.593 64.0905C527.598 62.3758 528.819 60.9819 530.255 59.9089C531.726 58.8267 533.321 58.0708 535.038 57.6411C536.791 57.2023 538.583 57.1304 540.414 57.4255C542.259 57.6984 544.072 58.3567 545.853 59.4005C547.613 60.4312 549.062 61.6842 550.202 63.1597C551.355 64.6128 552.164 66.1935 552.629 67.9017C553.116 69.623 553.236 71.3836 552.989 73.1833C552.765 74.9962 552.15 76.76 551.146 78.4747C550.141 80.1895 548.903 81.588 547.431 82.6702C545.982 83.7654 544.387 84.5214 542.648 84.938C540.93 85.3676 539.149 85.446 537.305 85.1731C535.474 84.878 533.679 84.2151 531.919 83.1844ZM533.211 80.9797C534.614 81.8016 536.042 82.3245 537.497 82.5484C538.986 82.763 540.42 82.6904 541.797 82.3307C543.21 81.9618 544.5 81.3419 545.669 80.4709C546.85 79.5776 547.852 78.4295 548.674 77.0265C549.496 75.6235 550.001 74.1995 550.189 72.7545C550.391 71.2872 550.301 69.8583 549.919 68.4679C549.572 67.0683 548.935 65.7824 548.006 64.6102C547.113 63.4288 545.965 62.4271 544.562 61.6051C543.159 60.7832 541.712 60.2649 540.223 60.0503C538.746 59.8134 537.302 59.8795 535.889 60.2484C534.512 60.6081 533.221 61.228 532.017 62.1082C530.849 62.9792 529.854 64.1162 529.032 65.5192C528.223 66.8999 527.718 68.3239 527.516 69.7912C527.337 71.2716 527.421 72.7116 527.767 74.1112C528.149 75.5016 528.798 76.794 529.714 77.9885C530.642 79.1607 531.808 80.1577 533.211 80.9797Z" fill="#242424"/>
<path d="M557.838 95.7083L574.499 74.3347L576.362 75.7867L573.136 100.075L572.159 99.3131L594.835 90.187L596.697 91.639L580.036 113.013L577.868 111.323L591.887 93.3383L592.406 93.7429L571.589 102.059L570.521 101.226L573.445 78.9617L574.025 79.4139L560.005 97.3982L557.838 95.7083Z" fill="#242424"/>
<path d="M604.571 112.259L614.985 122.095L613.31 123.868L602.897 114.032L604.571 112.259ZM596.21 121.563L608.059 132.755L606.358 134.556L592.426 121.397L611.034 101.695L624.544 114.455L622.843 116.257L611.416 105.464L596.21 121.563Z" fill="#242424"/>
<path d="M615.76 141.796L636.209 124.012L642.865 131.665C644.373 133.399 645.386 135.134 645.905 136.872C646.444 138.592 646.476 140.241 646 141.818C645.56 143.397 644.601 144.831 643.12 146.118C641.679 147.371 640.137 148.114 638.492 148.347C636.884 148.583 635.256 148.323 633.607 147.568C631.978 146.796 630.409 145.543 628.902 143.81L623.287 137.353L625.119 137.454L617.64 143.958L615.76 141.796ZM627.904 155.76L630.751 144.048L632.784 146.385L629.962 158.126L627.904 155.76ZM624.943 137.606L625.127 135.753L630.691 142.151C632.47 144.195 634.264 145.354 636.075 145.627C637.902 145.919 639.624 145.362 641.24 143.956C642.876 142.533 643.676 140.897 643.641 139.047C643.622 137.216 642.723 135.278 640.945 133.233L635.381 126.835L637.242 126.91L624.943 137.606Z" fill="#242424"/>
<path d="M648.174 178.061L670.989 163.436L676.463 171.975C677.703 173.909 678.454 175.773 678.715 177.568C678.998 179.349 678.79 180.984 678.09 182.475C677.426 183.974 676.268 185.253 674.617 186.311C673.009 187.342 671.374 187.853 669.713 187.845C668.088 187.844 666.515 187.351 664.993 186.364C663.493 185.363 662.124 183.896 660.884 181.962L656.266 174.759L658.064 175.124L649.72 180.473L648.174 178.061ZM658.161 193.641L662.679 182.467L664.351 185.075L659.854 196.281L658.161 193.641ZM657.869 175.25L658.32 173.443L662.896 180.581C664.358 182.862 665.965 184.269 667.717 184.802C669.483 185.356 671.267 185.056 673.071 183.899C674.896 182.729 675.925 181.226 676.159 179.391C676.406 177.577 675.798 175.529 674.336 173.247L669.76 166.109L671.59 166.454L657.869 175.25Z" fill="#242424"/>
<path d="M681.832 201.386L688.377 214.127L686.208 215.242L679.662 202.5L681.832 201.386ZM670.85 207.375L678.298 221.873L676.094 223.005L667.337 205.959L691.443 193.576L699.934 210.106L697.73 211.238L690.548 197.256L670.85 207.375Z" fill="#242424"/>
<path d="M683.022 234.662L708.133 224.47L709.211 227.125L686.395 236.384L692.103 250.447L689.807 251.378L683.022 234.662Z" fill="#242424"/>
<path d="M693.962 257.329L723.45 261.618L724.243 264.331L701.706 283.825L700.859 280.926L722.08 262.866L722.406 263.98L694.798 260.19L693.962 257.329ZM702.28 259.98L704.748 260.146L709.168 275.271L707.178 276.74L702.28 259.98Z" fill="#242424"/>
<path d="M706.09 297.413L730.217 292.498L728.316 283.165L730.744 282.671L735.118 304.142L732.69 304.637L730.789 295.305L706.662 300.221L706.09 297.413Z" fill="#242424"/>
<path d="M710.9 319.821L737.706 315.836L738.128 318.669L711.322 322.654L710.9 319.821Z" fill="#242424"/>
<path d="M715.367 349.037C715.301 346.999 715.575 345.093 716.189 343.317C716.829 341.566 717.748 340.025 718.944 338.696C720.167 337.391 721.593 336.35 723.22 335.575C724.875 334.824 726.695 334.416 728.681 334.352C730.668 334.288 732.497 334.577 734.171 335.22C735.871 335.888 737.361 336.834 738.64 338.058C739.946 339.307 740.962 340.785 741.688 342.492C742.441 344.198 742.85 346.082 742.917 348.146C742.983 350.184 742.696 352.079 742.055 353.829C741.44 355.579 740.534 357.107 739.337 358.411C738.14 359.74 736.715 360.781 735.061 361.532C733.407 362.308 731.588 362.728 729.601 362.793C727.615 362.857 725.772 362.555 724.072 361.887C722.372 361.245 720.883 360.299 719.603 359.049C718.324 357.825 717.308 356.36 716.555 354.654C715.829 352.948 715.432 351.075 715.367 349.037ZM717.92 348.955C717.973 350.58 718.292 352.067 718.878 353.417C719.491 354.792 720.316 355.966 721.355 356.939C722.42 357.938 723.633 358.699 724.992 359.223C726.378 359.747 727.883 359.982 729.509 359.929C731.134 359.877 732.608 359.545 733.931 358.934C735.28 358.322 736.441 357.484 737.413 356.42C738.413 355.38 739.161 354.155 739.657 352.745C740.181 351.359 740.416 349.854 740.363 348.229C740.311 346.604 739.978 345.104 739.366 343.729C738.779 342.354 737.953 341.167 736.888 340.168C735.849 339.195 734.636 338.433 733.25 337.884C731.89 337.36 730.398 337.124 728.773 337.177C727.173 337.229 725.699 337.56 724.35 338.172C723.002 338.81 721.829 339.648 720.829 340.688C719.857 341.752 719.109 342.99 718.587 344.401C718.09 345.812 717.868 347.33 717.92 348.955Z" fill="#242424"/>
<path d="M718.045 376.562L745.06 378.716L744.872 381.07L719.922 397.84L720.02 396.605L743.485 398.475L743.26 401.293L716.245 399.139L716.433 396.785L741.38 380.054L741.282 381.289L717.817 379.418L718.045 376.562Z" fill="#242424"/>
<path d="M714.305 422.81C714.649 420.827 715.298 418.975 716.252 417.254C717.226 415.563 718.308 414.311 719.498 413.495L721.48 414.979C720.401 415.761 719.407 416.885 718.497 418.351C717.609 419.847 717.012 421.473 716.708 423.227C716.416 424.906 716.383 426.302 716.609 427.415C716.856 428.558 717.294 429.433 717.922 430.04C718.545 430.672 719.29 431.063 720.154 431.213C721.197 431.394 722.089 431.235 722.831 430.735C723.568 430.26 724.198 429.571 724.722 428.666C725.272 427.766 725.788 426.756 726.27 425.635C726.753 424.513 727.249 423.394 727.757 422.278C728.291 421.165 728.911 420.16 729.617 419.261C730.319 418.387 731.155 417.72 732.126 417.26C733.117 416.83 734.325 416.738 735.749 416.985C737.071 417.215 738.22 417.768 739.194 418.644C740.189 419.551 740.892 420.786 741.301 422.35C741.736 423.919 741.757 425.835 741.364 428.098C741.103 429.599 740.629 431.049 739.94 432.448C739.278 433.853 738.485 435.025 737.562 435.965L735.477 434.62C736.438 433.609 737.21 432.485 737.791 431.25C738.368 430.04 738.76 428.838 738.967 427.643C739.246 426.041 739.259 424.681 739.008 423.563C738.757 422.445 738.306 421.568 737.657 420.932C737.029 420.325 736.257 419.942 735.342 419.783C734.299 419.602 733.409 419.749 732.672 420.223C731.93 420.723 731.297 421.425 730.774 422.33C730.245 423.26 729.74 424.285 729.257 425.407C728.774 426.528 728.268 427.632 727.739 428.719C727.205 429.831 726.587 430.824 725.886 431.698C725.205 432.601 724.381 433.27 723.415 433.705C722.445 434.165 721.26 434.274 719.861 434.031C718.564 433.806 717.418 433.24 716.423 432.334C715.453 431.432 714.753 430.184 714.323 428.59C713.913 427.025 713.907 425.099 714.305 422.81Z" fill="#242424"/>
<path d="M732.693 471.804L731.904 474.518L705.879 466.958L706.668 464.244L732.693 471.804ZM711.398 447.96L712.197 445.209L738.222 452.769L737.423 455.52L711.398 447.96ZM718.601 467.993L723.493 451.151L725.91 451.853L721.017 468.695L718.601 467.993Z" fill="#242424"/>
<path d="M702.238 480.306L727.826 489.235L726.882 491.94L701.294 483.011L702.238 480.306Z" fill="#242424"/>
<path d="M697.309 498.032L721.862 509.504L717.568 518.694C716.595 520.775 715.42 522.405 714.043 523.585C712.689 524.776 711.195 525.474 709.56 525.679C707.939 525.918 706.239 525.622 704.462 524.792C702.732 523.983 701.427 522.875 700.546 521.466C699.678 520.092 699.255 518.499 699.276 516.685C699.297 514.872 699.794 512.925 700.767 510.843L704.389 503.092L705.076 504.823L696.096 500.627L697.309 498.032ZM704.865 504.725L706.669 504.157L703.079 511.839C701.932 514.294 701.59 516.399 702.052 518.153C702.526 519.942 703.734 521.289 705.675 522.196C707.639 523.114 709.46 523.181 711.136 522.398C712.802 521.638 714.208 520.03 715.356 517.575L718.945 509.894L719.632 511.625L704.865 504.725Z" fill="#242424"/>
<path d="M677.43 543.987L699.571 559.613L698.21 561.543L673.796 559.476L674.51 558.464L684.704 580.68L683.342 582.609L661.201 566.982L662.786 564.737L681.416 577.885L681.037 578.423L671.74 558.025L672.521 556.918L694.9 558.78L694.475 559.381L675.845 546.233L677.43 543.987Z" fill="#242424"/>
<path d="M656.874 575.94L669.264 603.04L667.415 605.177L638.814 596.816L640.79 594.532L667.473 602.566L666.713 603.444L654.924 578.194L656.874 575.94ZM659.158 584.366L660.357 586.53L650.048 598.446L647.734 597.571L659.158 584.366Z" fill="#242424"/>
<path d="M633.533 605.267L651.976 625.124L650.246 626.731L620.525 622.21L621.433 621.367L637.453 638.614L635.382 640.537L616.938 620.681L618.669 619.073L648.361 623.621L647.453 624.464L631.434 607.217L633.533 605.267Z" fill="#242424"/>
<path d="M609.751 629.527L616.193 658.62L613.938 660.323L587.721 646.159L590.131 644.34L614.541 657.781L613.615 658.481L607.372 631.323L609.751 629.527ZM610.22 638.244L610.94 640.611L598.365 650.105L596.286 648.765L610.22 638.244Z" fill="#242424"/>
<path d="M570.737 658.92C572.508 657.857 574.318 657.162 576.168 656.834C578.009 656.541 579.802 656.593 581.546 656.991C583.268 657.402 584.87 658.141 586.354 659.207C587.815 660.287 589.057 661.679 590.08 663.382C591.103 665.086 591.748 666.837 592.014 668.634C592.258 670.444 592.145 672.212 591.677 673.939C591.208 675.665 590.405 677.261 589.268 678.727C588.122 680.228 586.664 681.509 584.894 682.572C583.124 683.635 581.342 684.329 579.55 684.652C577.735 684.989 575.969 684.906 574.251 684.402L574.841 681.925C576.4 682.314 577.891 682.367 579.317 682.083C580.742 681.799 582.129 681.252 583.479 680.442C584.917 679.578 586.099 678.537 587.024 677.32C587.939 676.138 588.585 674.832 588.961 673.402C589.328 672.007 589.414 670.571 589.219 669.093C589.015 667.65 588.494 666.231 587.657 664.837C586.833 663.465 585.826 662.339 584.635 661.459C583.422 660.591 582.107 659.981 580.69 659.627C579.265 659.309 577.809 659.265 576.321 659.496C574.825 659.762 573.369 660.32 571.953 661.171C570.625 661.968 569.495 662.918 568.561 664.02C567.605 665.136 566.915 666.468 566.491 668.018L563.981 666.996C564.503 665.358 565.352 663.84 566.529 662.441C567.719 661.064 569.122 659.89 570.737 658.92ZM566.517 665.88L571.659 674.443L569.302 675.858L563.981 666.996L566.517 665.88Z" fill="#242424"/>
<path d="M554.418 687.316L541.488 693.482L540.439 691.28L553.368 685.115L554.418 687.316ZM548.756 676.162L534.044 683.178L532.978 680.941L550.275 672.693L561.94 697.154L545.167 705.153L544.1 702.916L558.288 696.151L548.756 676.162Z" fill="#242424"/>
<path d="M521.837 688.592L530.219 714.363L527.973 715.094L509.654 698.824L510.832 698.44L505.699 722.338L503.453 723.069L495.071 697.297L497.685 696.447L504.738 718.132L504.112 718.335L508.876 696.43L510.164 696.011L526.975 710.899L526.276 711.127L519.223 689.442L521.837 688.592Z" fill="#242424"/>
<path d="M482.511 717.917L468.531 721.043L467.999 718.662L481.978 715.536L482.511 717.917ZM479.479 705.781L463.573 709.338L463.032 706.92L481.734 702.737L487.649 729.185L469.513 733.24L468.973 730.822L484.312 727.392L479.479 705.781Z" fill="#242424"/>
<path d="M450.984 711.135L453.939 738.074L451.591 738.331L430.437 716.972L431.668 716.837L434.235 740.235L431.426 740.543L428.47 713.605L430.818 713.347L451.934 734.71L450.703 734.846L448.136 711.447L450.984 711.135Z" fill="#242424"/>
<path d="M408.876 716.068L409.483 740.683L419.004 740.449L419.065 742.926L397.159 743.465L397.098 740.988L406.619 740.754L406.012 716.138L408.876 716.068Z" fill="#242424"/>
</svg>
