<svg width="91" height="94" viewBox="0 0 91 94" fill="none" xmlns="http://www.w3.org/2000/svg">
<g clip-path="url(#clip0_1281_741)">
<path d="M17.0442 24.8104C16.6237 25.1232 13.7398 32.7541 10.5556 41.8862C1.4236 68.094 1.60384 67.406 2.68527 68.5319C4.90819 70.8462 5.68923 69.3451 11.8774 51.5186C15.1217 42.0738 18.0054 34.3178 18.1857 34.3178C18.426 34.3178 21.2497 41.8862 24.4339 51.2059C27.6782 60.4632 30.6822 68.4068 31.1027 68.7821C32.1241 69.6578 33.6261 69.0949 34.1067 67.7813C34.4672 66.7805 20.9493 26.6243 19.8079 25.0606C19.0869 24.1849 18.1857 24.1224 17.0442 24.8104Z" fill="url(#paint0_linear_1281_741)"/>
<path d="M45.036 24.9359C42.813 26.312 44.1949 29.3143 47.0186 29.3143C49.3016 29.3143 52.4858 31.7537 53.7475 34.5058C56.0905 39.3846 52.9063 45.702 47.6795 46.5777C44.7956 47.0781 43.7142 48.1415 44.255 49.9554C44.7355 51.6441 48.5206 51.6441 51.7048 50.0179C58.5538 46.3275 60.8969 37.946 56.9316 30.9405C54.4684 26.5622 47.7996 23.1845 45.036 24.9359Z" fill="url(#paint1_linear_1281_741)"/>
<path d="M82.5881 24.811C81.747 25.3739 74.5977 45.7022 74.5977 47.4536C74.5977 49.2675 81.1463 67.6568 82.1676 68.7201C83.1889 69.7834 84.9913 68.9704 85.2917 67.2815C85.4119 66.7186 84.03 62.0274 82.1676 56.8359L78.8633 47.4536L82.468 37.3208C84.3906 31.7539 86.0127 26.8751 86.0127 26.4373C86.0127 25.9369 85.4719 25.3114 84.8711 24.9361C83.4894 24.1855 83.4894 24.1855 82.5881 24.811Z" fill="url(#paint2_linear_1281_741)"/>
<path d="M53.5089 54.083C52.848 54.8961 53.0282 55.9595 54.7104 60.7757C57.5342 69.1572 58.8559 70.7835 60.8386 68.3441C61.4993 67.531 61.3191 66.4676 59.6369 61.6514C56.8132 53.2699 55.4915 51.6436 53.5089 54.083Z" fill="#AA0A22"/>
</g>
<defs>
<linearGradient id="paint0_linear_1281_741" x1="18.1428" y1="69.3722" x2="18.1428" y2="24.3432" gradientUnits="userSpaceOnUse">
<stop offset="0.497834" stop-color="#AA0A22"/>
<stop offset="1" stop-color="#191516"/>
</linearGradient>
<linearGradient id="paint1_linear_1281_741" x1="51.3974" y1="51.2299" x2="51.3974" y2="24.4643" gradientUnits="userSpaceOnUse">
<stop offset="0.497834" stop-color="#AA0A22"/>
<stop offset="1" stop-color="#191516"/>
</linearGradient>
<linearGradient id="paint2_linear_1281_741" x1="80.3052" y1="69.1979" x2="80.3052" y2="24.3564" gradientUnits="userSpaceOnUse">
<stop offset="0.497834" stop-color="#AA0A22"/>
<stop offset="1" stop-color="#191516"/>
</linearGradient>
<clipPath id="clip0_1281_741">
<rect width="89.4237" height="93.049" fill="white" transform="translate(0.957031 0.335938)"/>
</clipPath>
</defs>
</svg>
