<svg width="13" height="8" viewBox="0 0 13 8" fill="none" xmlns="http://www.w3.org/2000/svg">
<path opacity="0.5" d="M6.45629 7.86854C6.65032 7.86317 6.83563 7.77467 6.97597 7.62036L11.8664 2.17619C12.0161 2.00775 12.102 1.77811 12.1054 1.53719C12.1088 1.29626 12.0294 1.06353 11.8846 0.889594C11.8135 0.804102 11.7284 0.735621 11.6342 0.688084C11.5401 0.640546 11.4387 0.614887 11.3359 0.612581C11.2331 0.610275 11.1309 0.631368 11.0352 0.674646C10.9395 0.717926 10.8522 0.782539 10.7783 0.864776L6.43247 5.70549L2.08554 0.864776C2.01132 0.782194 1.9236 0.717379 1.82746 0.674083C1.73133 0.630787 1.62869 0.60987 1.52548 0.612542C1.42228 0.615215 1.32056 0.641424 1.22621 0.689652C1.13187 0.73788 1.04677 0.807171 0.975838 0.893512C0.832461 1.06778 0.754362 1.29996 0.758395 1.53993C0.762428 1.77991 0.848272 2.00843 0.997396 2.17619L5.88783 7.62036C5.96317 7.7033 6.0522 7.76799 6.14965 7.81062C6.2471 7.85325 6.35212 7.87294 6.45629 7.86854Z" fill="#242424"/>
<path opacity="0.5" d="M6.69848 8.25623C6.89251 8.25086 7.07781 8.16237 7.21816 8.00806L12.1086 2.56388C12.2583 2.39545 12.3442 2.16581 12.3476 1.92488C12.351 1.68396 12.2716 1.45123 12.1267 1.27729C12.0556 1.1918 11.9706 1.12332 11.8764 1.07578C11.7823 1.02824 11.6809 1.00258 11.5781 1.00028C11.4753 0.997971 11.3731 1.01906 11.2774 1.06234C11.1817 1.10562 11.0944 1.17023 11.0204 1.25247L6.67465 6.09319L2.32773 1.25247C2.2535 1.16989 2.16578 1.10507 2.06965 1.06178C1.97351 1.01848 1.87087 0.997565 1.76767 1.00024C1.66446 1.00291 1.56275 1.02912 1.4684 1.07735C1.37405 1.12558 1.28895 1.19487 1.21803 1.28121C1.07465 1.45547 0.996549 1.68765 1.00058 1.92763C1.00462 2.1676 1.09046 2.39613 1.23958 2.56388L6.13001 8.00806C6.20536 8.09099 6.29439 8.15569 6.39184 8.19831C6.48929 8.24094 6.59431 8.26064 6.69848 8.25623Z" fill="#242424"/>
</svg>
