<svg width="9" height="12" viewBox="0 0 9 12" fill="none" xmlns="http://www.w3.org/2000/svg">
<path opacity="0.5" d="M8.18787 5.64917C8.1825 5.45515 8.09401 5.26984 7.9397 5.1295L2.49552 0.239067C2.32709 0.089382 2.09745 0.00350452 1.85652 0.000104897C1.6156 -0.00329473 1.38287 0.0760584 1.20893 0.220912C1.12344 0.292015 1.05496 0.377087 1.00742 0.471244C0.959882 0.565402 0.934223 0.666789 0.931917 0.769585C0.929611 0.87238 0.950704 0.974559 0.993982 1.07025C1.03726 1.16595 1.10187 1.25327 1.18411 1.32722L6.02483 5.673L1.18411 10.0199C1.10153 10.0942 1.03671 10.1819 0.993419 10.278C0.950123 10.3741 0.929206 10.4768 0.931878 10.58C0.934551 10.6832 0.96076 10.7849 1.00899 10.8793C1.05722 10.9736 1.12651 11.0587 1.21285 11.1296C1.38711 11.273 1.61929 11.3511 1.85927 11.3471C2.09924 11.343 2.32777 11.2572 2.49552 11.1081L7.9397 6.21764C8.02263 6.1423 8.08733 6.05327 8.12995 5.95582C8.17258 5.85837 8.19228 5.75335 8.18787 5.64917Z" fill="#242424"/>
</svg>
