<svg width="23" height="24" viewBox="0 0 23 24" fill="none" xmlns="http://www.w3.org/2000/svg">
<path d="M20.3077 1.84615H16.6154V0H14.7692V1.84615H7.38462V0H5.53846V1.84615H1.84615C0.830769 1.84615 0 2.67692 0 3.69231V22.1538C0 23.1692 0.830769 24 1.84615 24H20.3077C21.3231 24 22.1538 23.1692 22.1538 22.1538V3.69231C22.1538 2.67692 21.3231 1.84615 20.3077 1.84615ZM20.3077 22.1538H1.84615V9.23077H20.3077V22.1538ZM20.3077 7.38462H1.84615V3.69231H5.53846V5.53846H7.38462V3.69231H14.7692V5.53846H16.6154V3.69231H20.3077V7.38462Z" fill="#9B2D30"/>
</svg>
