<svg width="60" height="122" viewBox="0 0 60 122" fill="none" xmlns="http://www.w3.org/2000/svg">
<path d="M5.6871 87.6133L4.81681 88.1058L5.6871 87.6133ZM25.3459 0.11561C25.8866 0.00309813 26.4162 0.350211 26.5287 0.89091L28.3622 9.70216C28.4747 10.2429 28.1276 10.7724 27.5869 10.8849C27.0462 10.9974 26.5167 10.6503 26.4042 10.1096L24.7744 2.27739L16.9421 3.90719C16.4014 4.0197 15.8719 3.67259 15.7594 3.13189C15.6469 2.59118 15.994 2.06164 16.5347 1.94913L25.3459 0.11561ZM59.3281 120.895C59.0541 121.856 59.0537 121.856 59.0532 121.856C59.0528 121.856 59.0522 121.856 59.0514 121.855C59.0499 121.855 59.0478 121.854 59.045 121.854C59.0394 121.852 59.0314 121.85 59.0209 121.847C58.9999 121.841 58.969 121.832 58.9285 121.82C58.8475 121.796 58.7281 121.761 58.5724 121.714C58.2611 121.621 57.8047 121.482 57.2205 121.298C56.0524 120.93 54.3728 120.38 52.3206 119.654C48.2175 118.202 42.6175 116.041 36.6325 113.203C24.7238 107.557 11.0536 99.1262 4.81681 88.1058L6.5574 87.1208C12.4627 97.5554 25.613 105.765 37.4893 111.396C43.3968 114.197 48.9304 116.333 52.9878 117.769C55.0158 118.486 56.6732 119.029 57.822 119.391C58.3963 119.572 58.8433 119.708 59.1458 119.798C59.2971 119.844 59.4122 119.878 59.4889 119.9C59.5273 119.911 59.5562 119.92 59.5751 119.925C59.5846 119.928 59.5916 119.93 59.5961 119.931C59.5984 119.932 59.6 119.932 59.601 119.932C59.6016 119.933 59.6018 119.933 59.6021 119.933C59.6022 119.933 59.6022 119.933 59.3281 120.895ZM4.81681 88.1058C0.405959 80.3119 -0.480949 70.8958 0.593581 61.2559C1.66886 51.6093 4.71814 41.6456 8.28629 32.6707C11.8567 23.6901 15.961 15.6638 19.1709 9.88492C20.7764 6.9944 22.1596 4.66353 23.1424 3.05371C23.6338 2.24873 24.0253 1.62389 24.2945 1.19932C24.4291 0.987026 24.5332 0.824792 24.6039 0.71514C24.6393 0.660318 24.6663 0.618633 24.6846 0.590406C24.6938 0.576293 24.7008 0.565542 24.7056 0.558197C24.708 0.554525 24.7099 0.551706 24.7112 0.549742C24.7118 0.54876 24.7123 0.547925 24.7127 0.54743C24.7131 0.546817 24.7133 0.546417 25.5497 1.09464C26.386 1.64286 26.386 1.64289 26.3858 1.64313C26.3856 1.6435 26.3853 1.64395 26.3848 1.64468C26.3839 1.64615 26.3823 1.64847 26.3803 1.65163C26.3761 1.65797 26.3698 1.6677 26.3613 1.68078C26.3443 1.70695 26.3186 1.74655 26.2846 1.79926C26.2166 1.90469 26.1153 2.06254 25.9836 2.27033C25.72 2.68591 25.3346 3.30113 24.8494 4.09586C23.8789 5.68545 22.5098 7.9925 20.9193 10.8561C17.737 16.5853 13.6743 24.5317 10.1448 33.4096C6.61301 42.293 3.62951 52.0734 2.58127 61.4775C1.53228 70.8883 2.43112 79.8296 6.5574 87.1208L4.81681 88.1058Z" fill="#909090"/>
</svg>
