<svg width="1094" height="625" viewBox="0 0 1094 625" fill="none" xmlns="http://www.w3.org/2000/svg">
  <path d="M94.5021 404.637C94.5021 404.637 -6.99744 526.138 2.50257 532.638C12.0026 539.138 223.502 419.637 223.502 419.637L354.002 356.638L478.502 287.637C478.502 287.637 704.502 -1.36231 713.502 1.63745C722.502 4.63721 753.502 119.137 753.502 119.137L810.002 276.887L866.502 434.637C866.502 434.637 1070.5 293.138 1090.5 303.637C1110.5 314.137 976.502 615.638 976.502 615.638" stroke="#242424" stroke-width="2" stroke-dasharray="8 8"/>
  <circle cx="866.5" cy="434.638" r="7.5" fill="#9B2D30"/>
  <circle cx="976.5" cy="616.638" r="7.5" fill="#9B2D30"/>
  <circle cx="754.5" cy="120.638" r="7.5" fill="#9B2D30"/>
  <circle cx="223.504" cy="419.638" r="7.5" fill="#9B2D30"/>
  <circle cx="478.504" cy="287.638" r="7.5" fill="#9B2D30"/>
  <circle cx="94.5039" cy="404.638" r="7.5" fill="#9B2D30"/>
</svg>