<svg width="138" height="143" viewBox="0 0 138 143" fill="none" xmlns="http://www.w3.org/2000/svg">
<g clip-path="url(#clip0_1281_763)">
<path d="M24.7864 37.5069C24.1386 37.9862 19.6959 49.6803 14.7905 63.675C0.722253 103.838 0.999914 102.783 2.6659 104.509C6.09041 108.055 7.29362 105.755 16.8268 78.4364C21.8247 63.9625 26.2672 52.0767 26.545 52.0767C26.9152 52.0767 31.2652 63.675 36.1706 77.9571C41.1685 92.1436 45.7963 104.317 46.4441 104.892C48.0176 106.234 50.3315 105.371 51.0718 103.358C51.6272 101.825 30.8024 40.2866 29.044 37.8903C27.9333 36.5484 26.545 36.4526 24.7864 37.5069Z" fill="url(#paint0_linear_1281_763)"/>
<path d="M67.9092 37.6982C64.4847 39.807 66.6135 44.408 70.9635 44.408C74.4806 44.408 79.386 48.1462 81.3297 52.3638C84.9392 59.8404 80.0338 69.5216 71.9816 70.8635C67.5389 71.6304 65.873 73.26 66.706 76.0397C67.4464 78.6277 73.2774 78.6277 78.1827 76.1356C88.7339 70.4801 92.3435 57.6358 86.2349 46.9001C82.4402 40.1905 72.1667 35.0143 67.9092 37.6982Z" fill="url(#paint1_linear_1281_763)"/>
<path d="M125.755 37.5081C124.459 38.3708 113.445 69.5233 113.445 72.2072C113.445 74.9869 123.534 103.168 125.107 104.797C126.681 106.427 129.457 105.181 129.92 102.593C130.105 101.73 127.976 94.5411 125.107 86.5853L120.017 72.2072L125.57 56.6789C128.532 48.1479 131.031 40.6713 131.031 40.0003C131.031 39.2335 130.198 38.275 129.272 37.6999C127.143 36.5496 127.143 36.5496 125.755 37.5081Z" fill="url(#paint2_linear_1281_763)"/>
<path d="M80.9555 82.3641C79.9374 83.6102 80.215 85.2398 82.8065 92.6205C87.1567 105.465 89.1928 107.957 92.2472 104.219C93.2651 102.973 92.9875 101.343 90.396 93.9625C86.046 81.1181 84.0098 78.6258 80.9555 82.3641Z" fill="#AA0A22"/>
</g>
<defs>
<linearGradient id="paint0_linear_1281_763" x1="26.4788" y1="105.796" x2="26.4788" y2="36.7909" gradientUnits="userSpaceOnUse">
<stop offset="0.497834" stop-color="#AA0A22"/>
<stop offset="1" stop-color="#191516"/>
</linearGradient>
<linearGradient id="paint1_linear_1281_763" x1="77.7092" y1="77.9928" x2="77.7092" y2="36.9755" gradientUnits="userSpaceOnUse">
<stop offset="0.497834" stop-color="#AA0A22"/>
<stop offset="1" stop-color="#191516"/>
</linearGradient>
<linearGradient id="paint2_linear_1281_763" x1="122.238" y1="105.53" x2="122.238" y2="36.8115" gradientUnits="userSpaceOnUse">
<stop offset="0.497834" stop-color="#AA0A22"/>
<stop offset="1" stop-color="#191516"/>
</linearGradient>
<clipPath id="clip0_1281_763">
<rect width="137.761" height="142.595" fill="white"/>
</clipPath>
</defs>
</svg>
